<svg id="Layer_1" data-name="Layer 1" xmlns="http://www.w3.org/2000/svg" viewBox="0 0 55.76 17.02"><defs><style>.cls-1{fill:#13709e;}</style></defs><title>link-js</title><path class="cls-1" d="M177.69,56.36L177.51,58a0.8,0.8,0,0,0,.05.36l-0.16.31a2.8,2.8,0,0,1-.61,1.42,4.69,4.69,0,0,1-1.17,1.11,0.36,0.36,0,0,1-.41-0.4,0.65,0.65,0,0,1,.37-0.38,3.48,3.48,0,0,0,.4-0.25,4.17,4.17,0,0,0,1-3q0-1,0-3t0-3.39a54.9,54.9,0,0,0-.06-6l-1.07.14a0.25,0.25,0,0,1-.19-0.1,0.32,0.32,0,0,1-.07-0.21c0-.33.94-0.45,2.78-0.38a0.31,0.31,0,0,1,.23.1,0.3,0.3,0,0,1,.08.22q0,0.3-.94.26h-0.22l0,0.38a15.07,15.07,0,0,0,.05,1.59,17.35,17.35,0,0,1,0,2q0,0.94,0,3.6T177.69,56.36Zm-1.35,3.17a0,0,0,0,1,0,0Z" transform="translate(-175.21 -44.18)"/><path class="cls-1" d="M182.72,56.55h-0.54a2.22,2.22,0,0,0-1-.13,0.1,0.1,0,0,0,0,.07l0,0.07-0.05.4a9.76,9.76,0,0,1-.23,1.21q-0.33,1.38-.64,1.37a0.45,0.45,0,0,1-.27-0.12,0.3,0.3,0,0,1-.13-0.24,16.48,16.48,0,0,0,.63-2.25L180.82,55q0.08-.37.31-1.51l0.3-1.49q0.07-.36.38-1.55t0.37-1.56c0-.25.1-0.58,0.16-1a9.37,9.37,0,0,1,.33-1.73l0.27,0a0.49,0.49,0,0,0,.37-0.1,0.42,0.42,0,0,1,.24.09,0.26,0.26,0,0,1,.11.22q0,1,.13,3.71t0.28,3.56q0.12,0.81.28,1.59a5.49,5.49,0,0,1,.15,1.19l-0.11.27a7.55,7.55,0,0,0,.13,1.33,7.56,7.56,0,0,1,.13,1.24,0.47,0.47,0,0,1-.17.44,0.72,0.72,0,0,1-.51-0.13,0.59,0.59,0,0,1-.08-0.38c0-.17,0-0.38,0-0.64s0-.45-0.05-0.6-0.05-.39-0.1-0.71-0.07-.53-0.08-0.62A3.81,3.81,0,0,0,182.72,56.55Zm-1.4-1a0.53,0.53,0,0,0,.48.36,6.19,6.19,0,0,0,1.65.26h0.21a2.85,2.85,0,0,1-.1-0.9l0-.46a30.29,30.29,0,0,0-.19-3.62,34.14,34.14,0,0,1-.21-3.54c-0.82,3.42-1.33,5.53-1.53,6.33A10.36,10.36,0,0,0,181.32,55.52Z" transform="translate(-175.21 -44.18)"/><path class="cls-1" d="M191.92,46.15a0.26,0.26,0,0,1,.22.26,3,3,0,0,1-.06.48q-0.05.29-.15,0.67l-0.14.58q0,0.21-.37,1.52t-0.45,2q-0.12.7-.28,2t-0.22,1.73a10.49,10.49,0,0,1-.28,1.16c-0.14.49-.23,0.8-0.26,0.95a4.81,4.81,0,0,0-.07.55q0,0.34-.07.63a5.23,5.23,0,0,1-.13.61A0.7,0.7,0,0,1,189,60l-0.23-.19a59.34,59.34,0,0,0-1.53-11.14c0-.09-0.07-0.3-0.15-0.63q-0.34-1.34-.33-1.42a0.25,0.25,0,0,1,.09-0.17,0.27,0.27,0,0,1,.2-0.08,0.31,0.31,0,0,1,.22.18,1.54,1.54,0,0,1,.18.45q0.07,0.28.12,0.55c0,0.18.07,0.36,0.09,0.53s0.06,0.37.11,0.55,0.1,0.46.17,0.81l0.19,1q0.08,0.43.18,1c0.07,0.4.12,0.72,0.16,1s0.09,0.57.15,1,0.11,0.77.14,0.95,0.08,0.52.14,1,0.1,0.82.12,0.95,0.06,0.47.13,1l0.12,1a21.87,21.87,0,0,0,.78-3.82q0.33-2.47.92-5.08t0.68-3.13Zm-3,2.76v0h0S188.89,48.9,188.9,48.9Zm0.35,9.43,0,0,0,0V58.34Z" transform="translate(-175.21 -44.18)"/><path class="cls-1" d="M196.5,56.86H196a1.67,1.67,0,0,0-.64-0.12,1.69,1.69,0,0,0-.38,0,0.1,0.1,0,0,0,0,.07l0,0.07,0,0.4a9.79,9.79,0,0,1-.21,1.22q-0.3,1.39-.61,1.39a0.44,0.44,0,0,1-.27-0.11,0.3,0.3,0,0,1-.14-0.24,16.48,16.48,0,0,0,.57-2.27l0.38-1.89q0.07-.38.28-1.51l0.27-1.5q0.06-.36.34-1.56t0.33-1.57c0-.25.08-0.58,0.13-1a9.38,9.38,0,0,1,.29-1.73l0.27,0a0.49,0.49,0,0,0,.36-0.11,0.41,0.41,0,0,1,.24.08,0.26,0.26,0,0,1,.12.22q0,1,.21,3.7T197.77,54q0.14,0.81.32,1.58a5.49,5.49,0,0,1,.18,1.19l-0.1.27a7.53,7.53,0,0,0,.16,1.32,7.53,7.53,0,0,1,.16,1.23,0.47,0.47,0,0,1-.16.44,0.72,0.72,0,0,1-.52-0.12,0.59,0.59,0,0,1-.09-0.38c0-.17,0-0.38,0-0.64s0-.45-0.06-0.6-0.06-.39-0.11-0.71-0.09-.53-0.1-0.62A3.82,3.82,0,0,0,196.5,56.86Zm-1.42-1a0.53,0.53,0,0,0,.48.35,6.16,6.16,0,0,0,1.65.22h0.21a2.86,2.86,0,0,1-.12-0.9V55.07a30.29,30.29,0,0,0-.28-3.62,34.15,34.15,0,0,1-.29-3.54c-0.74,3.44-1.2,5.56-1.38,6.37A10.35,10.35,0,0,0,195.07,55.86Z" transform="translate(-175.21 -44.18)"/><path class="cls-1" d="M203.43,53.11l0,0.08,0.47,1.54a8,8,0,0,1,.31,1.83,5.14,5.14,0,0,1-.15,1.26,5.4,5.4,0,0,1-.45,1.18,2.59,2.59,0,0,1-.81.93,1.72,1.72,0,0,1-1,.37l-0.68,0a1,1,0,0,1-.83-0.48,0.2,0.2,0,0,1,.22-0.24,1.65,1.65,0,0,1,.58.15,1.84,1.84,0,0,0,.7.15,1.06,1.06,0,0,0,.71-0.37,2.46,2.46,0,0,0,.58-0.92,6.17,6.17,0,0,0,.4-2.08,7,7,0,0,0-.3-2,10.4,10.4,0,0,0-.73-1.84L201.57,51a8.13,8.13,0,0,1-1-3.73,3.13,3.13,0,0,1,.89-2.32,1.58,1.58,0,0,1,1.12-.46,1.24,1.24,0,0,1,.53.16,0.75,0.75,0,0,1,.39.34l-0.12.22a0.9,0.9,0,0,1-.66-0.21,1.1,1.1,0,0,0-.82.36,2.39,2.39,0,0,0-.65,1.74,5.65,5.65,0,0,0,.12,1.31l0.19,0.8a5.06,5.06,0,0,0,.24.69l0.26,0.63q0.08,0.21.33,0.67l0.32,0.6,0.37,0.66Z" transform="translate(-175.21 -44.18)"/><path class="cls-1" d="M206.87,51.78q0,2-.05,4a6.37,6.37,0,0,0,.35,2.42,2,2,0,0,0,1,1.11,1.92,1.92,0,0,0,.78.16,0.92,0.92,0,0,0,.6-0.18c0.21,0,.31.07,0.31,0.21a0.5,0.5,0,0,1-.27.35,2.43,2.43,0,0,1-.5.28h-0.68a3.14,3.14,0,0,0-.48-0.17,2.24,2.24,0,0,1-.65-0.31,2,2,0,0,1-.56-0.69,3.66,3.66,0,0,1-.38-1.13,14.15,14.15,0,0,1-.19-2.36V53.22a22.14,22.14,0,0,1,.18-3.65A4.41,4.41,0,0,1,207.33,47a2.25,2.25,0,0,1,.54-0.28,4.19,4.19,0,0,0,.5-0.22h1l0,0,0,0a0.28,0.28,0,0,1,.09.2l-0.26.3h-0.84a0.9,0.9,0,0,0-.71.39,2.78,2.78,0,0,0-.46.92,8,8,0,0,0-.25,1.22,14.45,14.45,0,0,0-.13,2Z" transform="translate(-175.21 -44.18)"/><path class="cls-1" d="M211.53,47.23q0-.76.43-0.77a2.57,2.57,0,0,1,1.63.47,1.72,1.72,0,0,1,.67,1.44l0,1.45a5.13,5.13,0,0,1-.75,2.22,3.55,3.55,0,0,0-.26.53s0.27,1.08.83,3.15,0.85,3.14.88,3.2,0.1,0.2.21,0.41a1.23,1.23,0,0,1,.17.53,0.2,0.2,0,0,1-.23.23l-0.3-.09q-0.49-.52-1.12-3.89t-1-3.25h-0.08q-0.45,0-.44.29,0,1.09.19,3.64a25.88,25.88,0,0,0,.27,2.84L212.5,60h-0.3L212,59.82Q211.58,51.16,211.53,47.23Zm0.57,0.27,0.16,4.84,0,0A0.87,0.87,0,0,0,213,52a2.75,2.75,0,0,0,.45-1,7.27,7.27,0,0,0,.29-1.78,7.84,7.84,0,0,0-.06-0.91,2.9,2.9,0,0,0-.18-0.65,1.1,1.1,0,0,0-1.16-.68,0.21,0.21,0,0,0-.17.19A1.12,1.12,0,0,0,212.1,47.49Z" transform="translate(-175.21 -44.18)"/><path class="cls-1" d="M220.45,59.46l-0.68,0a0.87,0.87,0,0,0-.38.12,1.14,1.14,0,0,1-.52.13,0.37,0.37,0,0,1-.39-0.18l-0.34,0a0.61,0.61,0,0,1-.57-0.19,0.25,0.25,0,0,1,.11-0.21l0.15-.14h0.59l0.08-.08,0.06-.42-0.26-4.37q0-2.33,0-4.67,0-1.36-.16-2.31a2.26,2.26,0,0,0-.6,0L217,47.1a0.32,0.32,0,0,1-.39-0.33,0.24,0.24,0,0,1,.18-0.17,0.79,0.79,0,0,1,.3-0.09c1.86,0,2.8.13,2.81,0.53a0.38,0.38,0,0,1,0,.16l-0.46.05a1,1,0,0,0-.58-0.1l-0.1.06a5.14,5.14,0,0,1,.09,1.06q0,2.38.07,4.76l0.26,4.38V58a1.41,1.41,0,0,0,.08.55l0,0c0,0.13.16,0.19,0.46,0.18l0.6,0c0.41,0,.61.08,0.62,0.27a0.36,0.36,0,0,1-.12.29A0.47,0.47,0,0,1,220.45,59.46Z" transform="translate(-175.21 -44.18)"/><path class="cls-1" d="M223.39,55.66l0.3,3.89a0.33,0.33,0,0,1-.38.37l-0.3-.15a15.44,15.44,0,0,1-.33-2.87q0-1.86,0-3.72a1.24,1.24,0,0,1-.14-0.45,4.69,4.69,0,0,0,.15-1.85,28.74,28.74,0,0,0-.25-3.87,0.85,0.85,0,0,1,.28-0.51l0.88,0a1.49,1.49,0,0,1,.66.2,4,4,0,0,1,.68.41,3.54,3.54,0,0,1,.59,2.34,7.74,7.74,0,0,1-.07,2.05,4.18,4.18,0,0,1-.29.64,1.49,1.49,0,0,1-.41.46,4.92,4.92,0,0,1-1.42.72Zm-0.3-8,0.2,2.88q0,0.94,0,1.89l0.14,0.19q1.49-.05,1.44-3.13l0-.54c0-.21,0-0.4,0-0.55a3,3,0,0,0-.11-0.49,1.25,1.25,0,0,0-.22-0.43,1.1,1.1,0,0,0-.95-0.37,0.41,0.41,0,0,0-.35.14A0.73,0.73,0,0,0,223.09,47.64Z" transform="translate(-175.21 -44.18)"/><path class="cls-1" d="M230.54,46.68l-1.09-.09-0.09.12,0,0.08a7.28,7.28,0,0,0,0,1.14q0,1.06.56,5t0.61,5.84a0.36,0.36,0,0,1-.11.27,0.38,0.38,0,0,1-.27.13L230,59l-0.11-1.45v-0.7a1.3,1.3,0,0,0-.1-0.47q-0.08-1.7-.47-4.94t-0.47-4.79c-1.05,0-1.62-.06-1.7-0.31a0.37,0.37,0,0,1,.37-0.24l2.73,0.06,0.36,0q0.36,0,.37.24a0.27,0.27,0,0,1-.14.24A0.55,0.55,0,0,1,230.54,46.68Z" transform="translate(-175.21 -44.18)"/></svg>