<svg id="Layer_1" data-name="Layer 1" xmlns="http://www.w3.org/2000/svg" viewBox="0 0 49.26 26.66"><defs><style>.cls-1{fill:#13709e;}</style></defs><title>link-overview</title><path class="cls-1" d="M24.58,31.14l-0.94,2.41,0,0.09a5.39,5.39,0,0,0-.51,1.11,3.19,3.19,0,0,1-1.48,1.79,1.31,1.31,0,0,1-1,.16,1.38,1.38,0,0,1-.78-0.62,2.89,2.89,0,0,1-.4-1.12,7.66,7.66,0,0,1-.06-1.46,14.55,14.55,0,0,1,.15-1.59q0.12-.77.29-1.57,0.3-1.34.6-2.3T21.2,25.9q0.47-1.2.58-1.55L22,23.73c0.06-.18.14-0.39,0.25-0.63a6.34,6.34,0,0,1,.3-0.63,3.72,3.72,0,0,1,.36-0.53,1.76,1.76,0,0,1,.45-0.4,1.47,1.47,0,0,1,1.23-.11,1.84,1.84,0,0,1,1.05.73c0,0.08.09,0.27,0.2,0.56a3.13,3.13,0,0,1,.21.8,8.52,8.52,0,0,1-.17,1.68A42.44,42.44,0,0,1,24.58,31.14Zm-0.11-9.21c-0.94-.28-2,1.46-3.16,5.24l-0.23.75a22.92,22.92,0,0,0-.69,2.91q-0.28,1.59-.35,2.61a5.81,5.81,0,0,0,.12,1.81,1.16,1.16,0,0,0,.69.95q0.67,0.2,1.4-1a14.63,14.63,0,0,0,1.1-2.26q0.51-1.4.64-1.83l0.14-.46L24.3,30l0.23-.82c0.11-.38.2-0.72,0.27-1s0.15-.66.25-1.09,0.16-.81.21-1.16,0.08-.71.12-1.1a6,6,0,0,0,0-1,5.76,5.76,0,0,0-.13-0.85A1.23,1.23,0,0,0,24.47,21.93Z" transform="translate(-19.38 -21.34)"/><path class="cls-1" d="M33.5,25.81a0.26,0.26,0,0,1,.15.31,3,3,0,0,1-.18.45q-0.13.27-.32,0.61l-0.29.53-0.76,1.37q-0.66,1.18-1,1.83t-0.8,1.86q-0.49,1.22-.67,1.61a10.53,10.53,0,0,1-.58,1c-0.27.44-.43,0.72-0.5,0.85a4.76,4.76,0,0,0-.22.51c-0.08.21-.16,0.41-0.24,0.59a5.18,5.18,0,0,1-.29.55,0.72,0.72,0,0,1-.82.48l-0.17-.24A55.94,55.94,0,0,0,28.32,27c0-.09,0-0.31,0-0.65q0-1.38,0-1.46a0.26,0.26,0,0,1,.14-0.14,0.27,0.27,0,0,1,.21,0,0.31,0.31,0,0,1,.17.23,1.52,1.52,0,0,1,.06.49c0,0.19,0,.38,0,0.56s0,0.36,0,.54,0,0.37,0,.56,0,0.47,0,.83,0,0.68-.07,1-0.05.64-.09,1-0.07.73-.09,1-0.06.58-.12,1-0.1.77-.12,0.95-0.06.52-.14,1-0.12.82-.14,0.94-0.07.47-.15,1l-0.14,1a21.56,21.56,0,0,0,1.78-3.49q1-2.3,2.22-4.68c0.83-1.58,1.31-2.53,1.47-2.85Zm-5.79,11.1,0,0v0Zm2.15-9.2v0h0S29.85,27.71,29.86,27.71Z" transform="translate(-19.38 -21.34)"/><path class="cls-1" d="M31.87,39.35L32,38.87l0-.09A2.34,2.34,0,0,0,32.37,38L33,35.47q0.91-2.88,1.8-5.76l0.58-2.32A0.51,0.51,0,0,1,36.1,27a0.39,0.39,0,0,1,.28.21l0.54,0.23c0.78,0.31,1.14.58,1.1,0.81a0.64,0.64,0,0,1-.47.27,6.94,6.94,0,0,0-1.48-.8l-0.13.09c0,0.19-.11.46-0.21,0.83l-0.92,3q-0.15.54,0.13,0.61l0.67,0.14c0.5,0.14.72,0.32,0.67,0.56a0.64,0.64,0,0,1-.2.32,0.42,0.42,0,0,1-.4.05A0.49,0.49,0,0,1,35.32,33l-0.62-.27-0.09,0-0.12.07,0,0.06q-0.1.51-.4,1.53l-0.83,2.72a4.25,4.25,0,0,0-.35,2.2,1.09,1.09,0,0,0,.6.32l0.75,0.16q0.58,0.16.51,0.41t-1,.11l-1.65-.45A0.38,0.38,0,0,1,31.87,39.35Z" transform="translate(-19.38 -21.34)"/><path class="cls-1" d="M39.93,28.65q0.2-.74.63-0.62a2.6,2.6,0,0,1,1.45.89,1.7,1.7,0,0,1,.25,1.56l-0.38,1.41a5.15,5.15,0,0,1-1.35,1.93,3.76,3.76,0,0,0-.4.44s0,1.11-.09,3.25S40,40.75,40,40.82s0,0.22.09,0.45a1.21,1.21,0,0,1,0,.56,0.21,0.21,0,0,1-.29.16l-0.27-.17q-0.33-.63,0-4t0-3.39l-0.08,0q-0.43-.12-0.51.16-0.29,1.06-.86,3.54a26.26,26.26,0,0,0-.56,2.8l-0.24.28L37,41.08l-0.1-.19C38.24,35.27,39.24,31.18,39.93,28.65Zm0.48,0.41q-0.6,2.35-1.21,4.7l0,0A0.89,0.89,0,0,0,40,33.6a2.79,2.79,0,0,0,.71-0.81,7.23,7.23,0,0,0,.79-1.64,7.7,7.7,0,0,0,.2-0.89,2.9,2.9,0,0,0,0-.67,1.1,1.1,0,0,0-.94-1,0.21,0.21,0,0,0-.22.13A1.11,1.11,0,0,0,40.42,29.06Z" transform="translate(-19.38 -21.34)"/><path class="cls-1" d="M50.28,30.2a0.26,0.26,0,0,1,.16.3,2.93,2.93,0,0,1-.17.45q-0.12.27-.3,0.62l-0.27.54L49,33.51q-0.62,1.2-.91,1.86t-0.74,1.89q-0.46,1.23-.63,1.63A10.75,10.75,0,0,1,46.16,40q-0.38.67-.48,0.87a4.74,4.74,0,0,0-.2.52c-0.07.21-.15,0.41-0.22,0.6a5.31,5.31,0,0,1-.28.56,0.73,0.73,0,0,1-.81.5L44,42.77a55.54,55.54,0,0,0,1.1-11.18q0-.14,0-0.65,0-1.38,0-1.46a0.26,0.26,0,0,1,.13-0.15,0.28,0.28,0,0,1,.21,0,0.31,0.31,0,0,1,.18.22,1.51,1.51,0,0,1,.08.48q0,0.29,0,.56t0,0.54c0,0.18,0,.37,0,0.56s0,0.47,0,.83,0,0.68,0,1,0,0.64-.06,1,0,0.73-.06,1,0,0.58-.09,1-0.07.77-.09,1,0,0.53-.1,1-0.09.82-.11,0.95-0.06.47-.12,1l-0.11,1a21.48,21.48,0,0,0,1.68-3.55q0.91-2.33,2.09-4.75c0.78-1.61,1.24-2.58,1.39-2.9ZM44.81,41.49l0,0v0Zm1.86-9.27v0h0S46.66,32.22,46.68,32.22Z" transform="translate(-19.38 -21.34)"/><path class="cls-1" d="M52.2,44.53l-0.66-.22a0.91,0.91,0,0,0-.4,0,1.17,1.17,0,0,1-.55,0A0.37,0.37,0,0,1,50.26,44L49.91,44a0.61,0.61,0,0,1-.5-0.33,0.26,0.26,0,0,1,.17-0.18l0.19-.09,0.58,0.14,0.1-.06,0.17-.39q0.47-2.14.94-4.28,0.63-2.26,1.24-4.51A22.35,22.35,0,0,0,53.26,32a2.33,2.33,0,0,0-.58-0.2l-0.48-.08a0.32,0.32,0,0,1-.29-0.42,0.24,0.24,0,0,1,.22-0.12,0.84,0.84,0,0,1,.31,0c1.84,0.44,2.71.85,2.62,1.24a0.38,0.38,0,0,1-.08.14l-0.47-.07A1,1,0,0,0,54,32.24l-0.11,0a5,5,0,0,1-.2,1q-0.6,2.31-1.21,4.61Q52,40.08,51.5,42.22l-0.17.59a1.38,1.38,0,0,0-.08.55l0,0c0,0.13.1,0.23,0.4,0.3l0.6,0.12q0.6,0.14.53,0.42a0.37,0.37,0,0,1-.2.25A0.49,0.49,0,0,1,52.2,44.53Z" transform="translate(-19.38 -21.34)"/><path class="cls-1" d="M54.53,45.07l0.14-.49-0.05-.09A2.31,2.31,0,0,0,55,43.72l0.54-2.59q0.8-2.92,1.57-5.83L57.56,33a0.52,0.52,0,0,1,.71-0.42,0.39,0.39,0,0,1,.29.2l0.56,0.2q1.2,0.41,1.14.77a0.65,0.65,0,0,1-.47.29,7,7,0,0,0-1.53-.73l-0.12.09c0,0.19-.09.47-0.18,0.84l-0.81,3c-0.09.36,0,.56,0.15,0.61L58,37.91c0.51,0.11.74,0.29,0.7,0.53a0.64,0.64,0,0,1-.19.33,0.43,0.43,0,0,1-.4.07,0.48,0.48,0,0,1-.36-0.24l-0.64-.24-0.09,0-0.12.07v0.06Q56.8,39,56.55,40l-0.72,2.76q-0.48,1.94-.26,2.21a1.1,1.1,0,0,0,.62.29L57,45.41q0.6,0.13.53,0.39c-0.06.23-.38,0.29-1,0.15l-1.68-.38A0.38,0.38,0,0,1,54.53,45.07Z" transform="translate(-19.38 -21.34)"/><path class="cls-1" d="M64.06,48q-0.35-.07-0.15-0.94A14.72,14.72,0,0,0,64,45.53q0-1,.07-1.3t0.3-2.19c0.45-3.14.57-4.85,0.39-5.12q-0.71,2.16-.82,2.66a13.47,13.47,0,0,1-.39,1.29q-0.27.8-.79,2.06l-0.58,1.43L62,44.9c-0.09.25-.17,0.48-0.26,0.69s-0.19.45-.31,0.7a1,1,0,0,1-.62.76q-0.31-.07-0.27-1a22.42,22.42,0,0,1,.33-2.55q0.29-1.64.32-2c0-.22.07-0.74,0.13-1.53s0.12-1.36.17-1.68,0.12-.72.21-1.21,0.16-.88.21-1.19A7.3,7.3,0,0,0,62,33.76a0.3,0.3,0,0,1,.3-0.09,0.32,0.32,0,0,1,.24.18,0.77,0.77,0,0,1,0,.35,3.65,3.65,0,0,1,0,.39l-0.14.8q-0.07.43-.43,3.84t-0.74,5.19a2.29,2.29,0,0,1,0,.55,1.76,1.76,0,0,0,0,.54h0q0.57-1.38.73-1.81l0.42-1.09c0.17-.44.3-0.79,0.39-1l0.32-.94q0.3-.87.63-2.11a19.59,19.59,0,0,1,.62-2,8.57,8.57,0,0,0,.34-1l0.4-.08a0.42,0.42,0,0,1,.22.12,0.2,0.2,0,0,1,.07.19,0.42,0.42,0,0,1-.09.18,29.31,29.31,0,0,1-.48,7.27,7.61,7.61,0,0,0-.16,2.33,15.6,15.6,0,0,0,1.21-3.32q0.77-2.66,1-3.72a16.89,16.89,0,0,1,.59-2,13.32,13.32,0,0,0,.44-1.34,1,1,0,0,0,0-.5,0.33,0.33,0,0,1,.47-0.22,0.42,0.42,0,0,1,.21.08,0.64,0.64,0,0,1,0,.37,2.49,2.49,0,0,1-.24.65v0.13A6.54,6.54,0,0,0,67.88,37a2.69,2.69,0,0,0-.11.68L67.57,38l0,0.15a0.45,0.45,0,0,0-.1.17,3.86,3.86,0,0,0,0,.43l-0.08.07q-0.16.71-.86,3t-0.84,2.69a7.28,7.28,0,0,1-.33.74,2.91,2.91,0,0,0-.25.62C64.78,47.39,64.43,48.07,64.06,48Zm0.59-2.34v0h0A0,0,0,0,0,64.65,45.65Z" transform="translate(-19.38 -21.34)"/></svg>