<svg id="Layer_1" data-name="Layer 1" xmlns="http://www.w3.org/2000/svg" viewBox="0 0 226.08 39.46"><title>links-background</title><path d="M26.71,32.38l-0.88,2.43,0,0.09A5.31,5.31,0,0,0,25.36,36a3.17,3.17,0,0,1-1.43,1.82,1.31,1.31,0,0,1-1,.18,1.4,1.4,0,0,1-.8-0.61,2.92,2.92,0,0,1-.43-1.11,7.67,7.67,0,0,1-.1-1.46,14.71,14.71,0,0,1,.11-1.59q0.1-.77.25-1.58,0.27-1.35.54-2.31t0.72-2.17q0.44-1.2.55-1.56l0.2-.62c0.06-.18.14-0.39,0.24-0.64a6.18,6.18,0,0,1,.29-0.64,3.64,3.64,0,0,1,.35-0.53,1.74,1.74,0,0,1,.45-0.41,1.48,1.48,0,0,1,1.24-.13,1.86,1.86,0,0,1,1.07.72q0,0.12.22,0.56a3.18,3.18,0,0,1,.23.8,8.59,8.59,0,0,1-.14,1.68A43.37,43.37,0,0,1,26.71,32.38ZM26.4,23.16q-1.43-.4-3.07,5.29l-0.22.75a22.49,22.49,0,0,0-.62,2.93q-0.24,1.59-.29,2.61a5.75,5.75,0,0,0,.17,1.81,1.18,1.18,0,0,0,.72.93q0.68,0.19,1.37-1.06a14.57,14.57,0,0,0,1-2.28q0.47-1.41.59-1.84l0.13-.46,0.17-.61,0.22-.82q0.15-.57.25-1t0.23-1.09c0.09-.43.15-0.82,0.18-1.16s0.07-.71.1-1.11a5.93,5.93,0,0,0,0-1,5.71,5.71,0,0,0-.14-0.85A1.24,1.24,0,0,0,26.4,23.16Z" transform="translate(-21.56 -22.58)"/><path d="M35.55,26.91a0.26,0.26,0,0,1,.15.3,3,3,0,0,1-.17.45q-0.12.27-.31,0.61L35,28.8l-0.73,1.38Q33.59,31.38,33.3,32T32.54,33.9q-0.47,1.22-.64,1.63a10.5,10.5,0,0,1-.55,1.06c-0.26.44-.42,0.73-0.48,0.86a4.66,4.66,0,0,0-.2.52c-0.07.21-.15,0.41-0.23,0.6a5.23,5.23,0,0,1-.28.56,0.71,0.71,0,0,1-.81.49l-0.18-.24A57.71,57.71,0,0,0,30.37,28.2c0-.09,0-0.31,0-0.65q0-1.38,0-1.46a0.26,0.26,0,0,1,.13-0.15,0.28,0.28,0,0,1,.21,0,0.31,0.31,0,0,1,.17.23,1.49,1.49,0,0,1,.07.48c0,0.19,0,.38,0,0.56s0,0.36,0,.54,0,0.37,0,.56,0,0.47,0,.83,0,0.68,0,1,0,0.64-.07,1-0.06.73-.07,1,0,0.58-.1,1-0.08.77-.09,1-0.05.52-.11,1-0.1.82-.11,0.95-0.06.47-.13,1l-0.12,1a21.59,21.59,0,0,0,1.69-3.52q0.92-2.32,2.12-4.72t1.42-2.87ZM30,38.1l0,0v0Zm1.94-9.24v0h0S31.93,28.86,31.94,28.86Z" transform="translate(-21.56 -22.58)"/><path d="M34.22,40.48L34.38,40l0-.09a2.31,2.31,0,0,0,.36-0.75l0.58-2.58,1.68-5.79,0.53-2.33a0.51,0.51,0,0,1,.71-0.4,0.39,0.39,0,0,1,.28.2L39,28.47q1.17,0.44,1.11.8a0.64,0.64,0,0,1-.47.27,6.94,6.94,0,0,0-1.5-.78L38,28.86q-0.05.28-.2,0.84l-0.87,3c-0.09.36,0,.56,0.14,0.61l0.68,0.13q0.75,0.19.68,0.55a0.63,0.63,0,0,1-.19.32,0.42,0.42,0,0,1-.4.06,0.49,0.49,0,0,1-.35-0.25l-0.62-.26-0.09,0-0.12.07v0.06q-0.09.51-.36,1.54l-0.76,2.74a4.23,4.23,0,0,0-.29,2.2,1.11,1.11,0,0,0,.61.31l0.75,0.15q0.59,0.15.52,0.41c-0.06.23-.38,0.28-1,0.13L34.52,41A0.38,0.38,0,0,1,34.22,40.48Z" transform="translate(-21.56 -22.58)"/><path d="M42,29.66q0.19-.74.62-0.63a2.62,2.62,0,0,1,1.47.87,1.72,1.72,0,0,1,.27,1.56l-0.35,1.41a5.11,5.11,0,0,1-1.31,1.95,3.56,3.56,0,0,0-.39.44s0,1.11,0,3.25,0,3.25,0,3.32,0,0.22.1,0.45a1.2,1.2,0,0,1,0,.56,0.2,0.2,0,0,1-.28.16l-0.27-.17q-0.34-.63-0.07-4t-0.11-3.39l-0.08,0c-0.29-.07-0.46,0-0.51.16q-0.27,1.06-.77,3.56a25.5,25.5,0,0,0-.49,2.81l-0.23.28-0.29-.07-0.11-.19Q41.09,33.48,42,29.66Zm0.49,0.4-1.11,4.71,0,0a0.89,0.89,0,0,0,.78-0.22,2.75,2.75,0,0,0,.69-0.82,7.21,7.21,0,0,0,.75-1.65,7.63,7.63,0,0,0,.18-0.89,2.84,2.84,0,0,0,0-.67,1.11,1.11,0,0,0-1-1,0.21,0.21,0,0,0-.22.14A1.13,1.13,0,0,0,42.54,30.06Z" transform="translate(-21.56 -22.58)"/><path d="M52.41,31.09a0.26,0.26,0,0,1,.16.3,3.06,3.06,0,0,1-.16.45c-0.08.18-.17,0.39-0.29,0.62L51.86,33l-0.69,1.4q-0.6,1.21-.87,1.87t-0.7,1.9q-0.43,1.24-.59,1.64a10.48,10.48,0,0,1-.52,1.08q-0.36.67-.45,0.87a4.73,4.73,0,0,0-.19.52q-0.1.32-.21,0.6a5.16,5.16,0,0,1-.26.57,0.71,0.71,0,0,1-.79.51l-0.18-.23a57.61,57.61,0,0,0,.86-11.2c0-.09,0-0.31,0-0.65,0-.92,0-1.41,0-1.46a0.25,0.25,0,0,1,.13-0.15,0.28,0.28,0,0,1,.21,0,0.31,0.31,0,0,1,.18.22,1.51,1.51,0,0,1,.09.48q0,0.29,0,.56c0,0.18,0,.36,0,0.54s0,0.37,0,.57,0,0.47,0,.83,0,0.68,0,1,0,0.64,0,1.05,0,0.73,0,1,0,0.58-.07,1-0.06.77-.07,1,0,0.53-.08,1-0.07.82-.09,0.95,0,0.47-.1,1l-0.09,1a21.65,21.65,0,0,0,1.59-3.57q0.85-2.35,2-4.78c0.75-1.62,1.2-2.59,1.33-2.91ZM47.18,42.44l0,0v0Zm1.66-9.29v0h0S48.83,33.15,48.85,33.15Z" transform="translate(-21.56 -22.58)"/><path d="M54.59,45.4l-0.66-.22a0.91,0.91,0,0,0-.4,0,1.18,1.18,0,0,1-.54,0,0.37,0.37,0,0,1-.34-0.28l-0.34-.06a0.61,0.61,0,0,1-.51-0.33A0.25,0.25,0,0,1,52,44.36l0.18-.09,0.58,0.13,0.1-.06L53,43.95l0.84-4.29L55,35.13a22.65,22.65,0,0,0,.42-2.28,2.27,2.27,0,0,0-.58-0.19l-0.48-.07a0.32,0.32,0,0,1-.3-0.42A0.24,0.24,0,0,1,54.26,32a0.81,0.81,0,0,1,.31,0c1.84,0.42,2.71.82,2.62,1.21a0.37,0.37,0,0,1-.08.14l-0.46-.06a1.06,1.06,0,0,0-.55-0.24l-0.11,0a5.16,5.16,0,0,1-.18,1.05l-1.12,4.62-0.85,4.3-0.16.6a1.4,1.4,0,0,0-.07.56l0,0q0,0.19.4,0.29l0.6,0.11c0.4,0.09.58,0.23,0.54,0.41a0.36,0.36,0,0,1-.19.25A0.48,0.48,0,0,1,54.59,45.4Z" transform="translate(-21.56 -22.58)"/><path d="M56.91,45.91L57,45.42,57,45.33a2.29,2.29,0,0,0,.33-0.77L57.8,42l1.45-5.85,0.44-2.35a0.51,0.51,0,0,1,.69-0.43,0.39,0.39,0,0,1,.29.19l0.56,0.2q1.19,0.4,1.15.76a0.64,0.64,0,0,1-.46.29,7,7,0,0,0-1.53-.72l-0.12.09c0,0.19-.08.47-0.17,0.84l-0.75,3q-0.12.54,0.16,0.61l0.68,0.11c0.51,0.11.74,0.28,0.7,0.52a0.64,0.64,0,0,1-.18.33,0.42,0.42,0,0,1-.4.07A0.49,0.49,0,0,1,60,39.41l-0.63-.24-0.09,0-0.12.07v0.06q-0.07.52-.31,1.55L58.15,43.6a4.23,4.23,0,0,0-.21,2.22,1.11,1.11,0,0,0,.62.28l0.76,0.12q0.59,0.13.54,0.39t-1,.16l-1.68-.36A0.38,0.38,0,0,1,56.91,45.91Z" transform="translate(-21.56 -22.58)"/><path d="M66.41,48.75q-0.35-.07-0.17-0.94a15.09,15.09,0,0,0,.09-1.52q0-1,0-1.3t0.25-2.19q0.58-4.72.3-5.12-0.67,2.17-.77,2.66t-0.36,1.3q-0.26.8-.74,2.06l-0.55,1.43c0,0.11-.1.3-0.18,0.54s-0.16.48-.25,0.7-0.18.45-.29,0.7a0.93,0.93,0,0,1-.6.76c-0.2,0-.3-0.37-0.28-1a22.28,22.28,0,0,1,.28-2.55q0.25-1.64.28-2t0.1-1.53c0-.8.1-1.36,0.14-1.68s0.11-.72.19-1.21,0.14-.88.19-1.19a7.38,7.38,0,0,0,.05-2.2,0.29,0.29,0,0,1,.3-0.1,0.31,0.31,0,0,1,.24.17,0.77,0.77,0,0,1,.05.35,3.5,3.5,0,0,1,0,.4l-0.12.8q-0.07.43-.36,3.84t-0.63,5.2a2.37,2.37,0,0,1,0,.55,1.75,1.75,0,0,0,0,.54h0q0.53-1.39.68-1.81c0.1-.29.23-0.65,0.39-1.09s0.29-.79.37-1l0.3-.94q0.28-.87.58-2.11a19.27,19.27,0,0,1,.58-2,8.74,8.74,0,0,0,.32-1l0.39-.08a0.42,0.42,0,0,1,.22.12,0.21,0.21,0,0,1,.07.19,0.43,0.43,0,0,1-.09.18A30.13,30.13,0,0,1,67.07,44,7.64,7.64,0,0,0,67,46.33,15.7,15.7,0,0,0,68.09,43q0.72-2.67.93-3.73a16.61,16.61,0,0,1,.56-2.05A13.38,13.38,0,0,0,70,35.86a1,1,0,0,0,0-.5c0-.2.19-0.28,0.46-0.23a0.41,0.41,0,0,1,.21.08,0.64,0.64,0,0,1,0,.37,2.53,2.53,0,0,1-.23.65v0.13A6.5,6.5,0,0,0,70,37.73a2.72,2.72,0,0,0-.1.68l-0.2.37,0,0.15a0.46,0.46,0,0,0-.1.17,4.09,4.09,0,0,0,0,.43l-0.08.07q-0.14.71-.79,3.05T68,45.35a7.33,7.33,0,0,1-.31.74,2.89,2.89,0,0,0-.24.62Q67,48.86,66.41,48.75Zm0.53-2.34v0h0A0,0,0,0,0,66.94,46.4Z" transform="translate(-21.56 -22.58)"/><path d="M102.33,46.07q0.4-3.37.8-6.74a1.63,1.63,0,0,1,.08-0.27,0.52,0.52,0,0,1,.41.59,20,20,0,0,1-.28,2.55q-0.3,2.08-.79,6.42T102,53.68a0.67,0.67,0,0,1,0,.31,0.66,0.66,0,0,1-.16.29,0.33,0.33,0,0,1-.29.15c-0.2,0-.27-0.19-0.23-0.48l0.09-.45q0.46-3,.81-6.82h-0.13l-0.76-.21a3.18,3.18,0,0,0-1.48,0q-0.17,1.15-.35,3.44t-0.35,3.44q0,0.3-.26.27a0.32,0.32,0,0,1-.3-0.28A7.48,7.48,0,0,1,98.69,52q0.13-1.14.32-2.46t0.21-1.69q0.37-4.88,1-9.07l0.35-.11,0.23,0.25a12.51,12.51,0,0,0-.31,1.45l-0.44,4-0.14.78a2.76,2.76,0,0,0,0,.71l2.41,0.19Z" transform="translate(-21.56 -22.58)"/><path d="M107.27,49.51l-0.55,4.63q-0.11.78-.46,0.73a0.36,0.36,0,0,1-.28-0.32,1.38,1.38,0,0,1,0-.53l0.63-3.23q0.15-1,.3-3.18t0.3-3.2l0.28-1.85q0.28-2-.06-2.09l-1.16,0A0.52,0.52,0,0,1,106,40.3a0.29,0.29,0,0,1-.1-0.27,2.07,2.07,0,0,1,1.39-.2,17.18,17.18,0,0,1,2.15.1,0.48,0.48,0,0,1,.27.14,0.29,0.29,0,0,1,.11.26c0,0.19-.17.27-0.42,0.24l-0.74-.16a0.4,0.4,0,0,0-.45.15,22,22,0,0,1-.21,2.59l-0.36,2.39a13.89,13.89,0,0,0-.18,3.41A2.88,2.88,0,0,0,107.27,49.51Z" transform="translate(-21.56 -22.58)"/><path d="M116.84,40.78a0.42,0.42,0,0,1,.52-0.26,0.25,0.25,0,0,1,.15.12,0.28,0.28,0,0,1,.07.18q-0.23,1.32-.38,2.54t-0.35,4.24q-0.2,3-.33,4t-0.18,1.27a5.43,5.43,0,0,0-.06.88,14.71,14.71,0,0,1-.13,1.6,1.23,1.23,0,0,1-.44,1.06V56.4l-0.09.07-0.38-.2V56.21a0.53,0.53,0,0,1,.09-0.24l-0.06-.18q0.19-1.18.27-1.81,0.33-3.27.66-6.54l0.32-2.23q0-.34.08-1c0-.41,0-0.68.06-0.82a0.19,0.19,0,0,0-.06.13,29.22,29.22,0,0,1-1.06,3.85A26.57,26.57,0,0,1,114.24,51a2.49,2.49,0,0,1-.15.28,1.81,1.81,0,0,0-.26.62l0,0.1s-0.07.21-.16,0.5c-0.19.64-.42,0.94-0.69,0.91s-0.4-.57-0.28-1.6a5.13,5.13,0,0,0,0-.66q0-.41-0.35-4.43T112,42.52q-0.31,1.78-.61,4-0.39,3.16-.78,6.31l-0.15,1.9a0.69,0.69,0,0,1-.23.49q-0.59-.07-0.45-1.11l0.56-3.3,0.46-4,0.68-4.7q0.15-1.13.2-1.71l0.41-.16c0.31,0.08.63,2.27,1,6.57q0.1,1.35.17,2t0.09,0.92c0,0.18,0,.4,0,0.65a5.89,5.89,0,0,1,0,1.1,13.62,13.62,0,0,0,.6-1.59l0.47-1.36q0.19-.55.91-2.79t0.93-2.85a12.23,12.23,0,0,0,.57-2Z" transform="translate(-21.56 -22.58)"/><path d="M120.19,56.45l-0.65-.09a0.54,0.54,0,0,0-.3.09,0.58,0.58,0,0,1-.33.08,0.45,0.45,0,0,1-.27-0.16,0.38,0.38,0,0,1-.11-0.31l0.23-.89q0.24-2.83.47-5.66,0.39-4.16.77-8.33,0-.2.29-0.17a0.33,0.33,0,0,1,.34.4q-0.53,4.59-.58,5.83T120,48.78q0,0.29-.13.77l0.05,0.08q-0.1.52-.17,1.06t-0.14,2.07q-0.08,1.53-.13,2.18a0.74,0.74,0,0,0-.13.39,0.55,0.55,0,0,0,.05.39,0.6,0.6,0,0,0,.4.14,0.56,0.56,0,0,0,.44-0.08L121,55.87a0.39,0.39,0,0,1,.25.34c0,0.26-.14.38-0.33,0.36a1.46,1.46,0,0,1-.31-0.11A1.4,1.4,0,0,1,120.19,56.45Z" transform="translate(-21.56 -22.58)"/><path d="M145.55,51.93l0,0.08s0.12,0.53.36,1.57a7.8,7.8,0,0,1,.18,1.85,5,5,0,0,1-.25,1.25,5.26,5.26,0,0,1-.55,1.15,2.63,2.63,0,0,1-.9.87,1.8,1.8,0,0,1-1,.29l-0.69-.07a1,1,0,0,1-.81-0.54,0.21,0.21,0,0,1,.24-0.23,1.72,1.72,0,0,1,.58.19,1.88,1.88,0,0,0,.7.2,1.1,1.1,0,0,0,.75-0.32,2.47,2.47,0,0,0,.66-0.87,6.09,6.09,0,0,0,.57-2.05,6.81,6.81,0,0,0-.15-2,10.25,10.25,0,0,0-.6-1.88l-0.74-1.72a8,8,0,0,1-.74-3.79,3.11,3.11,0,0,1,1.08-2.25,1.64,1.64,0,0,1,1.18-.38,1.31,1.31,0,0,1,.53.2,0.76,0.76,0,0,1,.37.36l-0.14.22a0.93,0.93,0,0,1-.65-0.25,1.14,1.14,0,0,0-.86.3,2.37,2.37,0,0,0-.79,1.69,5.59,5.59,0,0,0,0,1.32L144,47.93a4.79,4.79,0,0,0,.2.71l0.22,0.64q0.07,0.21.28,0.7l0.28,0.63,0.32,0.68Z" transform="translate(-21.56 -22.58)"/><path d="M149.24,49.07L149,50.51q-0.08,1.18,0,4a10.93,10.93,0,0,0,.34,3.21,1.85,1.85,0,0,0,1.6.91,5.55,5.55,0,0,1,2.13-.52l0.1,0.11q-0.06,1-1.68,1.16a4.86,4.86,0,0,1-.86,0,2,2,0,0,1-1.09-.52,2.64,2.64,0,0,1-.84-1.05,14.6,14.6,0,0,1-.28-3.42q0-2.86.1-5a13.18,13.18,0,0,1,.31-2.54,3.14,3.14,0,0,1,0-.65,2.23,2.23,0,0,1,1-1.81,3.5,3.5,0,0,1,2.2-.54,1.65,1.65,0,0,1,.75.26,0.62,0.62,0,0,1,.38.55c0,0.15-.12.22-0.33,0.21a0.47,0.47,0,0,1-.24-0.13,0.49,0.49,0,0,0-.26-0.14,0.72,0.72,0,0,0-.23,0,1.57,1.57,0,0,0-.49-0.11,2.22,2.22,0,0,0-.61.07,2.1,2.1,0,0,0-.61.23,1.41,1.41,0,0,0-.43.41,2.6,2.6,0,0,0-.47,1.13,13.66,13.66,0,0,0-.15,1.37Z" transform="translate(-21.56 -22.58)"/><path d="M158.36,52.67l0,0.08s0.13,0.53.39,1.56a7.79,7.79,0,0,1,.22,1.85,5.08,5.08,0,0,1-.23,1.25,5.33,5.33,0,0,1-.53,1.16,2.63,2.63,0,0,1-.88.89,1.82,1.82,0,0,1-1,.32l-0.69-.05a1,1,0,0,1-.82-0.52A0.21,0.21,0,0,1,155,59a1.72,1.72,0,0,1,.58.18,1.88,1.88,0,0,0,.7.19A1.1,1.1,0,0,0,157,59a2.47,2.47,0,0,0,.64-0.89A6.05,6.05,0,0,0,158.2,56a6.76,6.76,0,0,0-.2-2,10.24,10.24,0,0,0-.64-1.87l-0.78-1.7a8,8,0,0,1-.82-3.78,3.1,3.1,0,0,1,1-2.28A1.64,1.64,0,0,1,158,44a1.32,1.32,0,0,1,.53.19,0.76,0.76,0,0,1,.38.36l-0.13.22a0.93,0.93,0,0,1-.66-0.24,1.14,1.14,0,0,0-.86.32,2.38,2.38,0,0,0-.76,1.7,5.58,5.58,0,0,0,.06,1.32l0.16,0.81a4.78,4.78,0,0,0,.21.71L157.12,50c0,0.14.15,0.37,0.3,0.69l0.29,0.62L158,52Z" transform="translate(-21.56 -22.58)"/><path d="M164.14,52.91l0,0.08,0.41,1.56a7.79,7.79,0,0,1,.23,1.85,5.07,5.07,0,0,1-.22,1.25,5.33,5.33,0,0,1-.52,1.16,2.63,2.63,0,0,1-.88.9,1.81,1.81,0,0,1-1,.33l-0.69,0a1,1,0,0,1-.83-0.51,0.21,0.21,0,0,1,.23-0.23,1.7,1.7,0,0,1,.59.18,1.89,1.89,0,0,0,.71.18,1.1,1.1,0,0,0,.74-0.34,2.46,2.46,0,0,0,.63-0.89A6.06,6.06,0,0,0,164,56.3a6.79,6.79,0,0,0-.21-2,10.27,10.27,0,0,0-.66-1.86l-0.8-1.69a8,8,0,0,1-.86-3.77,3.1,3.1,0,0,1,1-2.28,1.64,1.64,0,0,1,1.17-.41,1.32,1.32,0,0,1,.53.18,0.76,0.76,0,0,1,.39.35l-0.13.22a0.93,0.93,0,0,1-.66-0.23,1.14,1.14,0,0,0-.86.33,2.37,2.37,0,0,0-.74,1.71,5.58,5.58,0,0,0,.07,1.32l0.16,0.8a4.75,4.75,0,0,0,.22.7l0.24,0.63q0.08,0.21.3,0.69l0.3,0.62,0.35,0.67Z" transform="translate(-21.56 -22.58)"/><path d="M192.86,57.1l-0.11,1.64a0.77,0.77,0,0,0,.07.36l-0.16.31a2.78,2.78,0,0,1-.57,1.45A4.81,4.81,0,0,1,190.94,62a0.36,0.36,0,0,1-.44-0.38,0.67,0.67,0,0,1,.36-0.4,3.59,3.59,0,0,0,.4-0.27,4.12,4.12,0,0,0,.94-3.07q0-1-.1-3T192,51.58a52.14,52.14,0,0,0-.34-6l-1.1.19a0.25,0.25,0,0,1-.2-0.09,0.31,0.31,0,0,1-.08-0.21c0-.33.95-0.5,2.84-0.52a0.32,0.32,0,0,1,.24.09,0.29,0.29,0,0,1,.1.22q0,0.3-1,.31h-0.22l0,0.38a14.58,14.58,0,0,0,.13,1.58,16.75,16.75,0,0,1,.13,2q0,0.94.19,3.6T192.86,57.1Zm-1.25,3.23a0,0,0,0,1,0,0Z" transform="translate(-21.56 -22.58)"/><path d="M198,57l-0.55,0a1.78,1.78,0,0,0-.66-0.11,1.82,1.82,0,0,0-.39,0,0.1,0.1,0,0,0,0,.07,0.32,0.32,0,0,1,0,.07l0,0.4a9.45,9.45,0,0,1-.19,1.22q-0.28,1.4-.6,1.41a0.47,0.47,0,0,1-.28-0.1,0.29,0.29,0,0,1-.14-0.23,16.12,16.12,0,0,0,.55-2.28L196,55.62c0-.25.13-0.76,0.26-1.52l0.24-1.51c0-.24.15-0.76,0.32-1.57s0.28-1.33.31-1.58,0.07-.59.12-1a9.18,9.18,0,0,1,.26-1.74h0.28a0.52,0.52,0,0,0,.37-0.12,0.44,0.44,0,0,1,.25.08,0.26,0.26,0,0,1,.12.22q0,1,.3,3.7t0.45,3.54q0.16,0.8.36,1.58a5.35,5.35,0,0,1,.21,1.18l-0.1.28a7.28,7.28,0,0,0,.19,1.32,7.2,7.2,0,0,1,.19,1.23,0.47,0.47,0,0,1-.16.45,0.76,0.76,0,0,1-.53-0.11,0.57,0.57,0,0,1-.1-0.37c0-.17,0-0.38,0-0.63s-0.05-.45-0.08-0.6l-0.13-.71C199,57.4,199,57.19,199,57.11A4,4,0,0,0,198,57Zm-1.49-1a0.54,0.54,0,0,0,.51.33,6.51,6.51,0,0,0,1.71.17H199a2.78,2.78,0,0,1-.14-0.9V55.21a29.36,29.36,0,0,0-.36-3.61,33.56,33.56,0,0,1-.38-3.53c-0.68,3.46-1.12,5.59-1.29,6.41A10.1,10.1,0,0,0,196.56,56.06Z" transform="translate(-21.56 -22.58)"/><path d="M207.06,46.14a0.26,0.26,0,0,1,.24.25,3,3,0,0,1,0,.48c0,0.2-.07.42-0.12,0.67l-0.12.59q0,0.21-.32,1.54t-0.37,2q-0.1.71-.2,2T206,55.45a10,10,0,0,1-.24,1.18c-0.12.5-.2,0.81-0.22,1a4.61,4.61,0,0,0-.05.55c0,0.23,0,.44,0,0.64a4.8,4.8,0,0,1-.11.61,0.72,0.72,0,0,1-.65.7l-0.24-.18c0-2.18-.74-5.86-2.07-11,0-.09-0.08-0.3-0.18-0.62q-0.41-1.32-.41-1.41a0.25,0.25,0,0,1,.09-0.18,0.29,0.29,0,0,1,.2-0.09,0.32,0.32,0,0,1,.24.16,1.53,1.53,0,0,1,.21.44c0.06,0.18.11,0.36,0.15,0.54s0.08,0.35.12,0.53,0.08,0.36.14,0.55,0.13,0.45.21,0.8l0.24,0.95c0.07,0.28.15,0.63,0.23,1l0.21,0.94q0.08,0.35.2,1c0.08,0.45.14,0.76,0.18,0.94s0.1,0.52.19,1,0.14,0.81.16,0.94,0.08,0.47.17,1l0.17,1a21.26,21.26,0,0,0,.64-3.86q0.23-2.49.72-5.13c0.32-1.76.51-2.81,0.56-3.16Zm-2.21,12.33,0,0,0,0V58.47Zm-0.77-9.41v0h0S204.06,49.06,204.08,49.06Z" transform="translate(-21.56 -22.58)"/><path d="M212.26,56.6l-0.56,0a1.79,1.79,0,0,0-.66-0.09,1.73,1.73,0,0,0-.39,0,0.1,0.1,0,0,0,0,.07,0.31,0.31,0,0,1,0,.07l0,0.4a9.43,9.43,0,0,1-.16,1.23q-0.25,1.41-.57,1.42a0.47,0.47,0,0,1-.28-0.1,0.29,0.29,0,0,1-.15-0.23,16.11,16.11,0,0,0,.5-2.3l0.31-1.91c0-.25.11-0.76,0.22-1.53l0.21-1.51c0-.24.13-0.77,0.28-1.58s0.25-1.34.28-1.58,0.06-.59.09-1a9.19,9.19,0,0,1,.22-1.75h0.28a0.53,0.53,0,0,0,.37-0.13,0.45,0.45,0,0,1,.26.07,0.26,0.26,0,0,1,.13.21q0,1,.38,3.69t0.53,3.53q0.18,0.8.4,1.57a5.35,5.35,0,0,1,.24,1.18l-0.09.28a7.26,7.26,0,0,0,.22,1.32,7.12,7.12,0,0,1,.22,1.22,0.47,0.47,0,0,1-.15.45,0.76,0.76,0,0,1-.54-0.09,0.57,0.57,0,0,1-.11-0.37c0-.17,0-0.38-0.06-0.63s-0.06-.45-0.09-0.6-0.08-.38-0.15-0.7l-0.13-.61A4.06,4.06,0,0,0,212.26,56.6Zm-1.51-.93a0.54,0.54,0,0,0,.51.32,6.58,6.58,0,0,0,1.71.14h0.22a2.77,2.77,0,0,1-.16-0.89l0-.46a29,29,0,0,0-.44-3.6,33.41,33.41,0,0,1-.46-3.52c-0.61,3.47-1,5.62-1.15,6.44A10,10,0,0,0,210.75,55.67Z" transform="translate(-21.56 -22.58)"/><path d="M219.27,52.48l0,0.08,0.55,1.52a7.7,7.7,0,0,1,.4,1.82,5,5,0,0,1-.1,1.27,5.33,5.33,0,0,1-.42,1.21,2.66,2.66,0,0,1-.8,1,1.84,1.84,0,0,1-1,.42l-0.7,0a1,1,0,0,1-.88-0.44,0.21,0.21,0,0,1,.21-0.25,1.72,1.72,0,0,1,.61.12,1.93,1.93,0,0,0,.73.12,1.12,1.12,0,0,0,.72-0.41,2.48,2.48,0,0,0,.56-0.95,6,6,0,0,0,.32-2.11,6.7,6.7,0,0,0-.39-2,10.11,10.11,0,0,0-.83-1.8l-1-1.61a7.9,7.9,0,0,1-1.2-3.68,3.09,3.09,0,0,1,.81-2.37,1.68,1.68,0,0,1,1.14-.52,1.34,1.34,0,0,1,.55.13,0.77,0.77,0,0,1,.42.31l-0.11.23a1,1,0,0,1-.69-0.17,1.16,1.16,0,0,0-.83.41,2.36,2.36,0,0,0-.59,1.77,5.46,5.46,0,0,0,.19,1.31l0.24,0.79a4.89,4.89,0,0,0,.28.68l0.3,0.61c0.06,0.13.19,0.35,0.37,0.66l0.35,0.59,0.41,0.64Z" transform="translate(-21.56 -22.58)"/><path d="M222.77,51q0.06,2,.12,4a6.16,6.16,0,0,0,.46,2.4,2,2,0,0,0,1.06,1.05,2,2,0,0,0,.81.12,1,1,0,0,0,.62-0.22c0.21,0,.33.05,0.33,0.2a0.51,0.51,0,0,1-.27.36,2.6,2.6,0,0,1-.51.31l-0.71,0a3.18,3.18,0,0,0-.51-0.14,2.34,2.34,0,0,1-.68-0.28,2,2,0,0,1-.61-0.66,3.56,3.56,0,0,1-.44-1.1,13.7,13.7,0,0,1-.3-2.35L222,52.45a21.51,21.51,0,0,1,0-3.66,4.39,4.39,0,0,1,1-2.59,2.42,2.42,0,0,1,.55-0.31,5.14,5.14,0,0,0,.51-0.25l0.83-.05h0.22l0,0,0,0a0.27,0.27,0,0,1,.1.2l-0.26.31-0.87.05a0.94,0.94,0,0,0-.72.43,2.79,2.79,0,0,0-.44.94,7.75,7.75,0,0,0-.21,1.24,14.17,14.17,0,0,0-.05,2Z" transform="translate(-21.56 -22.58)"/><path d="M227.4,46.16c0-.51.11-0.77,0.41-0.79a2.72,2.72,0,0,1,1.71.38,1.68,1.68,0,0,1,.75,1.4l0.09,1.45a5,5,0,0,1-.68,2.26,3.56,3.56,0,0,0-.25.54s0.33,1.06,1,3.1,1,3.09,1,3.15,0.11,0.2.23,0.39a1.19,1.19,0,0,1,.2.52,0.21,0.21,0,0,1-.22.24l-0.32-.07q-0.53-.49-1.32-3.82t-1.16-3.19h-0.08q-0.46,0-.45.32,0.06,1.09.35,3.62a25.27,25.27,0,0,0,.39,2.83l-0.14.34-0.31,0-0.16-.15Q227.63,50.09,227.4,46.16ZM228,46.39q0.19,2.42.37,4.83l0,0a0.92,0.92,0,0,0,.69-0.44,2.73,2.73,0,0,0,.42-1,7,7,0,0,0,.23-1.8,7.56,7.56,0,0,0-.1-0.91,2.85,2.85,0,0,0-.21-0.64,1.13,1.13,0,0,0-1.23-.62,0.21,0.21,0,0,0-.17.2A1.07,1.07,0,0,0,228,46.39Z" transform="translate(-21.56 -22.58)"/><path d="M237.16,57.89h-0.71a0.94,0.94,0,0,0-.39.15,1.24,1.24,0,0,1-.54.15,0.38,0.38,0,0,1-.41-0.16l-0.35,0a0.64,0.64,0,0,1-.59-0.16,0.25,0.25,0,0,1,.11-0.22,1,1,0,0,0,.15-0.14l0.61,0,0.08-.08,0-.43-0.45-4.35q-0.11-2.33-.22-4.67a22.28,22.28,0,0,0-.26-2.3,2.45,2.45,0,0,0-.62,0l-0.5.08a0.33,0.33,0,0,1-.42-0.31,0.24,0.24,0,0,1,.18-0.18,0.86,0.86,0,0,1,.3-0.1c1.93-.15,2.91,0,2.94.37a0.38,0.38,0,0,1,0,.16l-0.48.08a1.11,1.11,0,0,0-.61-0.07l-0.1.07A4.92,4.92,0,0,1,235,46.8q0.14,2.38.27,4.75l0.45,4.37,0,0.62a1.36,1.36,0,0,0,.1.55l0,0.05c0,0.13.17,0.18,0.48,0.16l0.62-.07q0.63-.05.65,0.23a0.36,0.36,0,0,1-.11.3A0.51,0.51,0,0,1,237.16,57.89Z" transform="translate(-21.56 -22.58)"/><path d="M240.05,53.93l0.47,3.87a0.34,0.34,0,0,1-.38.4l-0.31-.13a15,15,0,0,1-.45-2.85q-0.09-1.86-.19-3.72A1.18,1.18,0,0,1,239,51a4.54,4.54,0,0,0,.07-1.86,27.46,27.46,0,0,0-.42-3.86,0.87,0.87,0,0,1,.27-0.52l0.91-.08a1.59,1.59,0,0,1,.69.16,4.09,4.09,0,0,1,.72.37,3.41,3.41,0,0,1,.71,2.31,7.42,7.42,0,0,1,0,2.05,4.25,4.25,0,0,1-.28.65,1.56,1.56,0,0,1-.41.48,5.28,5.28,0,0,1-1.45.79Zm-0.64-8,0.33,2.86,0.06,1.89,0.15,0.18q1.54-.13,1.36-3.21l0-.54c0-.21,0-0.4-0.07-0.54a2.77,2.77,0,0,0-.14-0.49,1.23,1.23,0,0,0-.24-0.42,1.16,1.16,0,0,0-1-.31,0.44,0.44,0,0,0-.36.16A0.73,0.73,0,0,0,239.41,45.92Z" transform="translate(-21.56 -22.58)"/><path d="M247.11,44.54l-1.14,0-0.09.13,0,0.07a7,7,0,0,0,.06,1.14q0.09,1.06.79,4.93t0.86,5.81a0.36,0.36,0,0,1-.1.28,0.41,0.41,0,0,1-.27.14L247,56.87l-0.17-1.45,0-.7a1.24,1.24,0,0,0-.12-0.47q-0.15-1.69-.68-4.91t-0.69-4.76c-1.09.11-1.69,0-1.78-.21a0.39,0.39,0,0,1,.38-0.26l2.84-.09,0.37-.06c0.25,0,.38,0,0.4.22a0.27,0.27,0,0,1-.13.24A0.6,0.6,0,0,1,247.11,44.54Z" transform="translate(-21.56 -22.58)"/></svg>