<svg id="Layer_1" data-name="Layer 1" xmlns="http://www.w3.org/2000/svg" viewBox="0 0 23.27 17.29"><defs><style>.cls-1{fill:#13709e;}</style></defs><title>link-scss</title><path class="cls-1" d="M135.17,50.47l0,0.08s0.09,0.54.28,1.59A7.77,7.77,0,0,1,135.5,54a5,5,0,0,1-.32,1.23,5.2,5.2,0,0,1-.61,1.12,2.64,2.64,0,0,1-1,.82,1.84,1.84,0,0,1-1.07.24l-0.69-.11a1,1,0,0,1-.79-0.59,0.21,0.21,0,0,1,.26-0.21,1.77,1.77,0,0,1,.58.23,1.92,1.92,0,0,0,.69.24,1.12,1.12,0,0,0,.78-0.28,2.46,2.46,0,0,0,.71-0.84,6,6,0,0,0,.68-2,6.77,6.77,0,0,0,0-2,10.36,10.36,0,0,0-.5-1.91l-0.65-1.76a8,8,0,0,1-.52-3.83,3.14,3.14,0,0,1,1.18-2.19,1.59,1.59,0,0,1,1.17-.31,1.27,1.27,0,0,1,.5.22,0.75,0.75,0,0,1,.35.38l-0.14.21a0.9,0.9,0,0,1-.63-0.28,1.1,1.1,0,0,0-.86.26,2.4,2.4,0,0,0-.87,1.64,5.64,5.64,0,0,0,0,1.32c0,0.36.07,0.63,0.09,0.81a4.88,4.88,0,0,0,.16.72l0.18,0.65q0.06,0.21.24,0.71l0.24,0.64,0.29,0.7Z" transform="translate(-131.06 -41.82)"/><path class="cls-1" d="M139,47.8l-0.34,1.42q-0.13,1.17-.17,4a10.76,10.76,0,0,0,.2,3.22,1.87,1.87,0,0,0,1.58,1,2.1,2.1,0,0,0,1.69-.42,2.13,2.13,0,0,0,.49,0L142.52,57c-0.06.63-.64,1-1.75,1.1a5,5,0,0,1-.87,0,2.08,2.08,0,0,1-1.09-.56,2.62,2.62,0,0,1-.8-1.09,14.42,14.42,0,0,1-.13-3.43q0.08-2.86.32-5a13.44,13.44,0,0,1,.42-2.53,3.25,3.25,0,0,1,0-.65,2.25,2.25,0,0,1,1.06-1.77,3.39,3.39,0,0,1,2.18-.45,1.61,1.61,0,0,1,.73.28,0.62,0.62,0,0,1,.36.56c0,0.15-.13.21-0.34,0.19a0.47,0.47,0,0,1-.23-0.14,0.48,0.48,0,0,0-.25-0.15,0.7,0.7,0,0,0-.22,0,1.52,1.52,0,0,0-.47-0.12,2.16,2.16,0,0,0-.6,0,2,2,0,0,0-.6.2,1.4,1.4,0,0,0-.44.39,3.1,3.1,0,0,0-.31.49,3.15,3.15,0,0,0-.21.62,13.69,13.69,0,0,0-.21,1.36Z" transform="translate(-131.06 -41.82)"/><path class="cls-1" d="M147.95,51.68l0,0.08s0.12,0.53.36,1.57a7.73,7.73,0,0,1,.18,1.85,5,5,0,0,1-.26,1.25,5.25,5.25,0,0,1-.56,1.15,2.65,2.65,0,0,1-.92.87,1.87,1.87,0,0,1-1.06.29l-0.7-.07a1,1,0,0,1-.82-0.55,0.21,0.21,0,0,1,.25-0.23,1.78,1.78,0,0,1,.59.2,1.92,1.92,0,0,0,.71.21,1.13,1.13,0,0,0,.77-0.32,2.46,2.46,0,0,0,.67-0.87,6,6,0,0,0,.58-2.05,6.71,6.71,0,0,0-.15-2,10.32,10.32,0,0,0-.6-1.88l-0.74-1.72a8,8,0,0,1-.72-3.8,3.14,3.14,0,0,1,1.07-2.25,1.6,1.6,0,0,1,1.16-.38,1.29,1.29,0,0,1,.52.2,0.75,0.75,0,0,1,.37.36l-0.13.22a0.91,0.91,0,0,1-.64-0.25,1.11,1.11,0,0,0-.85.3,2.4,2.4,0,0,0-.79,1.69,5.61,5.61,0,0,0,0,1.32l0.14,0.81a4.85,4.85,0,0,0,.19.71L146.77,49q0.07,0.21.28,0.7l0.28,0.63L147.64,51Z" transform="translate(-131.06 -41.82)"/><path class="cls-1" d="M153.73,52l0,0.08s0.13,0.53.4,1.56a7.7,7.7,0,0,1,.22,1.85,5,5,0,0,1-.23,1.25,5.25,5.25,0,0,1-.53,1.16,2.65,2.65,0,0,1-.9.89,1.86,1.86,0,0,1-1.06.32l-0.7-.06a1,1,0,0,1-.83-0.53,0.21,0.21,0,0,1,.24-0.23,1.77,1.77,0,0,1,.59.18,1.94,1.94,0,0,0,.72.19,1.13,1.13,0,0,0,.76-0.33,2.46,2.46,0,0,0,.65-0.89,6,6,0,0,0,.53-2.06,6.73,6.73,0,0,0-.2-2,10.35,10.35,0,0,0-.65-1.87l-0.78-1.7a8,8,0,0,1-.81-3.78,3.14,3.14,0,0,1,1-2.27,1.6,1.6,0,0,1,1.15-.4,1.28,1.28,0,0,1,.52.18,0.76,0.76,0,0,1,.38.35l-0.13.22a0.91,0.91,0,0,1-.65-0.24,1.11,1.11,0,0,0-.85.32,2.39,2.39,0,0,0-.75,1.7,5.6,5.6,0,0,0,.06,1.32L152,48a4.82,4.82,0,0,0,.21.71l0.23,0.64q0.07,0.21.3,0.69l0.29,0.62,0.34,0.68Z" transform="translate(-131.06 -41.82)"/></svg>