<svg id="Layer_1" data-name="Layer 1" xmlns="http://www.w3.org/2000/svg" viewBox="0 0 23.29 17.26"><defs><style>.cls-1{fill:#13709e;}</style></defs><title>link-html</title><path class="cls-1" d="M91.29,44.63q0.34-3.38.66-6.76A1.65,1.65,0,0,1,92,37.61a0.52,0.52,0,0,1,.41.58,20.07,20.07,0,0,1-.22,2.55q-0.26,2.08-.66,6.44t-0.5,5.06a0.49,0.49,0,0,1-.11.6,0.33,0.33,0,0,1-.29.16c-0.2,0-.28-0.18-0.24-0.47l0.08-.45q0.41-3.05.69-6.84H91.06L90.29,45a3.22,3.22,0,0,0-1.48.05q-0.16,1.15-.3,3.45T88.2,52c0,0.2-.12.29-0.26,0.27A0.32,0.32,0,0,1,87.63,52a7.34,7.34,0,0,1,.08-1.38q0.12-1.14.3-2.46t0.19-1.69q0.32-4.89.89-9.08l0.34-.11,0.23,0.25A12.8,12.8,0,0,0,89.38,39q-0.19,2-.38,4l-0.13.78a2.75,2.75,0,0,0,0,.71l2.42,0.15Z" transform="translate(-87.61 -37.27)"/><path class="cls-1" d="M96.35,47.95q-0.2,2.32-.41,4.64-0.09.78-.45,0.74A0.36,0.36,0,0,1,95.2,53a1.36,1.36,0,0,1-.05-0.53q0.27-1.62.54-3.24,0.12-1,.2-3.19t0.2-3.2L96.31,41q0.22-2-.13-2.08H95a0.51,0.51,0,0,1-.27-0.12,0.29,0.29,0,0,1-.11-0.26A2,2,0,0,1,96,38.27a17.4,17.4,0,0,1,2.13,0,0.47,0.47,0,0,1,.27.13,0.3,0.3,0,0,1,.11.25c0,0.19-.16.28-0.41,0.25l-0.74-.13a0.4,0.4,0,0,0-.44.16,22.06,22.06,0,0,1-.12,2.6L96.55,44a13.82,13.82,0,0,0-.07,3.41A2.87,2.87,0,0,0,96.35,47.95Z" transform="translate(-87.61 -37.27)"/><path class="cls-1" d="M105.52,38.81a0.41,0.41,0,0,1,.5-0.29,0.24,0.24,0,0,1,.15.11,0.28,0.28,0,0,1,.08.18q-0.15,1.33-.23,2.56t-0.11,4.25q0,3-.11,4.06T105.69,51a5.33,5.33,0,0,0,0,.89,14.31,14.31,0,0,1,0,1.6,1.21,1.21,0,0,1-.39,1.08V54.46l-0.09.07-0.4-.18V54.3a0.52,0.52,0,0,1,.08-0.24l-0.07-.18q0.13-1.19.18-1.82,0.17-3.28.32-6.57l0.19-2.24q0-.34,0-1c0-.41,0-0.68,0-0.82a0.19,0.19,0,0,0,0,.13,28.25,28.25,0,0,1-.85,3.9,25.41,25.41,0,0,1-1.15,3.65,2.48,2.48,0,0,1-.14.28,1.8,1.8,0,0,0-.24.63l0.05,0.1s-0.06.21-.13,0.51c-0.16.65-.38,1-0.66,0.94S101.91,51.07,102,50a5.07,5.07,0,0,0,0-.66c0-.27-0.2-1.74-0.55-4.41s-0.55-4.06-.62-4.18q-0.24,1.79-.44,4-0.25,3.17-.52,6.34L99.77,53a0.69,0.69,0,0,1-.22.5q-0.6-.05-0.5-1.09,0.22-1.66.44-3.32,0.15-2,.3-4,0.25-2.36.49-4.72,0.1-1.14.13-1.71l0.4-.18c0.31,0.07.71,2.24,1.25,6.52q0.16,1.34.26,2t0.14,0.92c0,0.18.05,0.4,0.08,0.65a5.83,5.83,0,0,1,.07,1.1,13.22,13.22,0,0,0,.53-1.62l0.41-1.38c0.11-.37.37-1.31,0.77-2.83s0.66-2.48.78-2.9a12.13,12.13,0,0,0,.45-2Z" transform="translate(-87.61 -37.27)"/><path class="cls-1" d="M109.84,54.24l-0.67,0a0.57,0.57,0,0,0-.3.11,0.61,0.61,0,0,1-.33.11,0.46,0.46,0,0,1-.29-0.14,0.37,0.37,0,0,1-.13-0.3l0.18-.9q0.07-2.84.13-5.68,0.13-4.18.25-8.36a0.21,0.21,0,0,1,.28-0.19,0.33,0.33,0,0,1,.37.38c-0.15,3.07-.22,5-0.2,5.85s0,1.34,0,1.53,0,0.46-.08.78l0.06,0.08Q109,48,109,48.53t0,2.08q0,1.54,0,2.18a0.72,0.72,0,0,0-.11.4,0.54,0.54,0,0,0,.08.39,0.62,0.62,0,0,0,.42.12,0.59,0.59,0,0,0,.45-0.11l0.79,0a0.39,0.39,0,0,1,.28.32c0,0.26-.12.39-0.31,0.38a1.51,1.51,0,0,1-.32-0.09A1.47,1.47,0,0,1,109.84,54.24Z" transform="translate(-87.61 -37.27)"/></svg>